PathFileType	4	(X/Y/Z)	outputs\dynamic_markers.trc
DataRate	CameraRate	NumFrames	NumMarkers	Units	OrigDataRate	OrigDataStartFrame	OrigNumFrames
360.000000	360.000000	4	45	m	360.000000	160	643
Frame#	Time	C7			CLAV			LANK			LASI			LBHD			LELB			LFHD			LFIN			LFRM			LHEE			LKNE			LMANK			LMELB			LMKNE			LPSI			LSHO			LTHI			LTIB			LTOE			LUPA			LWRA			LWRB			RANK			RASI			RBAK			RBHD			RELB			RFHD			RFIN			RFRM			RHEE			RKNE			RMANK			RMELB			RMKNE			RPSI			RSHO			RTHI			RTIB			RTOE			RUPA			RWRA			RWRB			STRN			T10			
		X1	Y1	Z1	X2	Y2	Z2	X3	Y3	Z3	X4	Y4	Z4	X5	Y5	Z5	X6	Y6	Z6	X7	Y7	Z7	X8	Y8	Z8	X9	Y9	Z9	X10	Y10	Z10	X11	Y11	Z11	X12	Y12	Z12	X13	Y13	Z13	X14	Y14	Z14	X15	Y15	Z15	X16	Y16	Z16	X17	Y17	Z17	X18	Y18	Z18	X19	Y19	Z19	X20	Y20	Z20	X21	Y21	Z21	X22	Y22	Z22	X23	Y23	Z23	X24	Y24	Z24	X25	Y25	Z25	X26	Y26	Z26	X27	Y27	Z27	X28	Y28	Z28	X29	Y29	Z29	X30	Y30	Z30	X31	Y31	Z31	X32	Y32	Z32	X33	Y33	Z33	X34	Y34	Z34	X35	Y35	Z35	X36	Y36	Z36	X37	Y37	Z37	X38	Y38	Z38	X39	Y39	Z39	X40	Y40	Z40	X41	Y41	Z41	X42	Y42	Z42	X43	Y43	Z43	X44	Y44	Z44	X45	Y45	Z45	

161	0.4444444444444445	0.1150106939835657	1.534163488927227	0.1427199388458902	0.08483562599266006	1.449466802279572	0.2751086715805402	0.4533243762079162	0.3194917612128047	0.4379847242098416	0.25851292137348	1.069462363331926	0.2925092094685668	0.09084171910499596	1.672699071433964	0.1574976856650384	0.4073230574375218	1.167706281170161	0.3700593436304918	0.2042044786609492	1.69297415712865	0.2276577140297576	0.09200930122995461	1.239066362429354	0.5072679637203206	0.2614002734165747	1.176426811954389	0.438962568522079	0.3918620399172087	0.3801293594416474	0.3681192916882127	0.3234198569443197	0.7698659179225125	0.6276351802372671	0.3428355627803979	0.2932320929275031	0.4407319726588225	0.3660813128515474	1.122415038130351	0.3023501601194093	0.2110944105290699	0.6981972418650212	0.6086398452899038	0.2727075314895707	1.069045231492801	0.08422082787570734	0.2673370060373722	1.488171643231993	0.2562980497534917	0.3365065944634569	0.9250982471612099	0.4596997336192655	0.3915427344272418	0.6210918444665906	0.5480370786730517	0.3910293989436892	0.2009857933043517	0.5665687567290141	0.3388643031009287	1.321186528565316	0.3349179551103766	0.1518156301154054	1.232631757637602	0.4271161006244771	0.1467466560611021	1.158196438329652	0.4507574752565967	0.009368648654439229	0.05151818138411592	0.1438563939941814	0.02155370005786542	1.016681485658304	0.1775483077371196	0.1014043897300493	1.351078618089524	0.02812667285464326	0.009008311029987219	1.67991832316169	0.2710310461537747	-0.1825428650026933	1.157263477768373	0.09206084301475637	0.1196036747800184	1.702075015072564	0.3594169482792122	-0.08427817458793181	1.248830149271368	0.39234702271311	-0.1371027951535518	1.191074806138151	0.2546381629641743	0.06959219278243804	0.06923619102707358	0.0759182808592995	-0.01610782313859385	0.5185203314710015	0.3321708351428529	0.1222599390924311	0.06322968979206546	0.1745199956379729	-0.1020661364965507	1.121355797058089	0.07283432287146385	0.09995895302659838	0.5071137927426168	0.3642905358059969	0.1693544707358379	1.049204004657201	0.0395912556499888	-0.07352028553799374	1.496697570390934	0.1391475852524748	-0.002936387491942808	0.7099766180054231	0.2091389444407035	-0.02232914118193126	0.3152061151600298	0.2199357347122572	0.06572214490151215	0.07023083799883885	0.3126742353071857	-0.1469320159903266	1.345652478115908	0.09595592350925673	-0.04202497128282286	1.229859391450344	0.3347438868108362	-0.1017747879654008	1.183534308078342	0.3588457056231708	0.07358370080107825	1.268129466574671	0.2772458848031362	0.2060589277140981	1.153796132531515	0.05562718111501913	
162	0.4472222222222222	0.1149300600117107	1.534475185067215	0.1423106572184203	0.08456861241409912	1.449774417202448	0.2746507718824958	0.4503951947484874	0.3245113622731792	0.4405447017959234	0.2584777890768315	1.070345310676032	0.2920569451655034	0.09066709711520342	1.672998607649695	0.1570325362261682	0.4062750207964585	1.168741350256241	0.3723290135719636	0.2039619206484841	1.693309872824795	0.2273020638137432	0.09089273845960337	1.242191547969343	0.5079517051146885	0.2601365329034862	1.178445235076241	0.4406320228112739	0.3890738629759181	0.3852298999384506	0.3706278433687794	0.3226587091275999	0.7752660953724435	0.6299334462988975	0.3397642546724017	0.2987412135923196	0.4435759615849624	0.3651364603860509	1.123014274787893	0.3048277491202943	0.2098607908263555	0.7041601113409797	0.6114378367888443	0.2732781491052907	1.069629176315603	0.08387418731759093	0.2669738126427287	1.488578315059408	0.2561999240882863	0.3367673508928096	0.9282228209983423	0.4602104371929156	0.3901288397635632	0.62627605946246	0.5510410380349645	0.3877845605566305	0.2066516451727099	0.569594962831952	0.3380876787171971	1.322046325217049	0.3358382089723422	0.1507768128784974	1.234892763550206	0.4279759523016419	0.1453723934633361	1.160659325664038	0.4521821427053724	0.009388968249230868	0.05153650057356005	0.1438360537718075	0.02189381970874644	1.016994623508742	0.1766002845794182	0.1016506031159431	1.351442163379584	0.02762492511296867	0.008726022294750566	1.680212549549402	0.2704877640518084	-0.1831440930379635	1.157740479747873	0.09234639405089172	0.1192312707067856	1.702404460439574	0.3589775018427415	-0.08569261921581743	1.251496823378322	0.3921718146548891	-0.1381454486649507	1.192735097347262	0.2547779125561467	0.06962749711826642	0.06923574140813196	0.07591037696839781	-0.0162526525246124	0.5189017695104053	0.3312884328618861	0.1222487048721781	0.06325303275816371	0.1745479081603015	-0.1027032982726599	1.121500532521029	0.07361390174083754	0.09973755016592457	0.5074247750349475	0.3637346306318116	0.1700898822071461	1.049523986020159	0.03909775768239209	-0.07352695247308447	1.49708067429476	0.1384058863731954	-0.002583643808961855	0.7103349536372041	0.2082921353879928	-0.02228719937878842	0.3154517217590156	0.2192570799593288	0.06562657687281519	0.07038480068943967	0.3126536258433826	-0.1470261990264616	1.346053945348778	0.09547479253310158	-0.04324005802303644	1.231985806638333	0.334869856689149	-0.1031717764808938	1.185950535995203	0.3590995961354109	0.07338821890307295	1.268418191310781	0.2766585098804079	0.2064951896240406	1.154313861154168	0.05511288401013385	
163	0.45	0.1148644683558822	1.534787477876975	0.1419091787627697	0.08431590557640459	1.45008399310641	0.2742009149669891	0.4474761834795	0.3295503546156999	0.4430902443847399	0.2584489314522992	1.071228022222141	0.2916151698164704	0.09050841596345886	1.673297411846427	0.1565737733027268	0.4052364201844895	1.16980287120984	0.3746032275874169	0.2037330996090994	1.693647760090374	0.2269553052345616	0.08980357273955654	1.245335818765231	0.5086326373781743	0.2588898075908126	1.180489251042001	0.4423031007160542	0.3863035360499979	0.3903508754578859	0.3731194792664385	0.3219206378713014	0.7806877724332881	0.6321724103067429	0.3367092370165022	0.3042652612294527	0.4463854493233854	0.3641943560579128	1.123638807884308	0.3073172091448332	0.2086481898871578	0.7101468678503436	0.6141840253686299	0.2738556830427313	1.070212107750109	0.08353992046090825	0.2666218550777092	1.488988558099917	0.2561116899806409	0.3370145969573502	0.9313806063715243	0.4607114301520657	0.3887310440606134	0.6314756711696082	0.5539801666978262	0.3845411338285823	0.212319818474783	0.5725833017930656	0.3373211029929529	1.322920769937715	0.3367648287026774	0.149757630334127	1.237174345898968	0.4288375244916393	0.144017221942654	1.163147501697456	0.453608873978218	0.009406493619336037	0.05155251967362773	0.1438149976934986	0.02224012364457811	1.017297233241121	0.1756586548496998	0.1019151349915911	1.351801585767875	0.02713592361731023	0.008455842942608788	1.680506194969749	0.2699483901270577	-0.1837354750167138	1.158230008591138	0.09263435748787696	0.1188687745964293	1.70273649925881	0.3585447297532827	-0.08709523734352478	1.254177906313612	0.3919746741916923	-0.1391760614409309	1.194409708699938	0.254910011946648	0.06966081192985682	0.06923491933874885	0.07590201014020101	-0.01639153835554033	0.5192819054509719	0.3304104591169627	0.1222346948538959	0.06327906296448579	0.1745763608199339	-0.1033315807229889	1.12165720489155	0.07440225478852218	0.09952142848164422	0.5077351385229595	0.3631785013843976	0.1708349342696636	1.049842045809815	0.03861738758349285	-0.07351513327267162	1.497466060476771	0.1376689994093155	-0.002208624498975976	0.7106822244640701	0.2074430480049452	-0.0222449798524058	0.3156979477469495	0.2185799029039428	0.06552330432245969	0.07054250808168157	0.3126349256124829	-0.1471004980336965	1.346463218861333	0.09498884017121852	-0.0444439846530337	1.234121602866376	0.3349867054539665	-0.1045633893254502	1.188383990153511	0.3593398339390035	0.07320392715408373	1.268711109532727	0.2760815009576319	0.2069409955065296	1.154829081556929	0.05461064395626161	
164	0.4527777777777778	0.1148138130726453	1.535100032600794	0.1415154156374724	0.08407756623715312	1.450395274691412	0.2737588726683213	0.4445715095325286	0.334606982859446	0.4456232276550642	0.2584270115225579	1.072111353149599	0.2911840239689514	0.09036548547328258	1.673595615005503	0.1561215080088617	0.4042078581692036	1.170890707002457	0.3768813011413992	0.2035179855743609	1.693987654484856	0.2266172163964924	0.08874194772371544	1.248497073118938	0.5093099011735631	0.2576606029010478	1.182557964601495	0.4439753848171332	0.3835592109476164	0.3954910542972814	0.3755928555475931	0.3212039498921292	0.786128746161211	0.6343522968440037	0.3336745689362371	0.3098036863784485	0.4491566520477752	0.3632558188253839	1.124288463069535	0.3098180317110013	0.2074571253937847	0.7161535734348262	0.6168742174505075	0.2744397735999551	1.070793370928776	0.08321810691845521	0.2662811730399497	1.489402035089372	0.2560329742318818	0.3372467966824041	0.9345729630487114	0.4612024914464719	0.387347800172462	0.6366910290374465	0.556850790005875	0.3812961665184277	0.2179903433372554	0.5755322748801868	0.3365653777948315	1.323809572731085	0.337697039807649	0.1487586361152055	1.239475414859883	0.4297006101009873	0.1426815270729852	1.165659648654491	0.4550366607182997	0.009421410763898351	0.05156646196410024	0.143793314357967	0.02259320335325469	1.017588900069549	0.1747251924229973	0.1021973430759219	1.352157023605817	0.02665949496247795	0.008197849737717115	1.680799094812113	0.2694132797731797	-0.1843168487389739	1.158731800606777	0.09292412966526904	0.1185165913002613	1.703070634080449	0.3581187070437127	-0.08848529998849401	1.256871854082592	0.3917555674624603	-0.1401941496693336	1.196097946414217	0.25503380196278	0.06969222275846865	0.06923376845643039	0.07589321514488806	-0.01652456776436285	0.5196603810959169	0.3295369518323137	0.12221809813457	0.0633077048993152	0.1746053583734579	-0.1039510019355082	1.121825647187641	0.07519850293346345	0.09930957503465022	0.5080443090607206	0.362623855228055	0.1715887874346635	1.05015801328475	0.03815010336978143	-0.073484965647068	1.497853437418806	0.1369371296662528	-0.001811505947683631	0.7110180546116531	0.2065923533136483	-0.0222025500102901	0.3159444581450211	0.2179047284899156	0.06541246371585077	0.07070345799232611	0.3126184735885344	-0.1471555146547421	1.346879596811362	0.09449891446759989	-0.0456359825400575	1.236266170778819	0.3350938555030001	-0.1059487363368789	1.190833564251651	0.3595655388536019	0.07303074997409849	1.269007582370669	0.2755146968067946	0.2073962404838041	1.155341448949831	0.0541203751378585	
